<?xml version="1.0" standalone="no"?><!DOCTYPE svg PUBLIC "-//W3C//DTD SVG 1.1//EN" "http://www.w3.org/Graphics/SVG/1.1/DTD/svg11.dtd"><svg t="1709274821611" class="icon" viewBox="0 0 1024 1024" version="1.1" xmlns="http://www.w3.org/2000/svg" p-id="11994" id="mx_n_1709274821611" data-spm-anchor-id="a313x.search_index.0.i19.7e813a81JvzUAN" xmlns:xlink="http://www.w3.org/1999/xlink" width="200" height="200"><path d="M76.288 85.504h787.456v790.528h-787.456v-790.528z m474.838016 134.863872c74.571776 0 149.144576-0.004096 223.717376 0.01024 4.77696 0.001024 9.571328-0.090112 14.326784 0.26624 12.169216 0.909312 23.17824 10.441728 24.344576 22.498304 1.061888 10.97216 1.690624 22.252544 0.347136 33.130496-2.316288 18.748416-6.355968 37.280768-9.591808 55.917568-6.267904 36.105216-12.401664 72.23296-18.745344 108.32384-4.246528 24.170496-8.260608 48.39936-13.305856 72.406016-3.995648 19.008512-19.1744 31.741952-38.524928 33.44896-19.516416 1.721344-39.079936 2.909184-58.626048 4.284416-20.73088 1.4592-41.473024 2.77504-62.198784 4.312064-30.063616 2.230272-60.111872 4.678656-90.176512 6.892544-25.653248 1.888256-51.323904 3.524608-76.981248 5.363712-27.522048 1.973248-55.044096 3.956736-82.546688 6.180864-4.521984 0.365568-9.137152 1.485824-13.36832 3.13344-9.46176 3.683328-14.010368 13.88032-11.058176 23.599104 2.832384 9.322496 11.419648 14.449664 21.356544 12.899328 2.514944-0.393216 5.100544-0.323584 7.652352-0.49664 15.978496-1.084416 31.960064-2.143232 47.935488-3.273728 22.772736-1.611776 45.540352-3.300352 68.312064-4.918272 15.80544-1.123328 31.617024-2.154496 47.423488-3.275776 22.771712-1.616896 45.539328-3.299328 68.312064-4.916224 15.80544-1.123328 31.616-2.158592 47.42144-3.278848 22.941696-1.625088 45.88032-3.303424 68.820992-4.932608 10.70592-0.760832 21.536768-0.692224 32.104448-2.33472 32.416768-5.03808 53.888-23.496704 63.19616-54.986752 3.40992-11.533312 4.800512-23.671808 6.977536-35.560448 3.777536-20.622336 7.455744-41.263104 11.169792-61.897728 3.863552-21.471232 7.806976-42.928128 11.557888-64.418816 5.18656-29.717504 9.742336-59.55584 15.499264-89.160704 3.786752-19.477504 3.529728-38.226944-4.025344-56.718336-6.825984-16.707584-17.41312-29.8752-34.013184-37.855232-14.614528-7.025664-30.109696-10.006528-46.11072-10.017792-150.33856-0.105472-300.678144-0.098304-451.017728 0.044032-7.443456 0.007168-15.004672 0.989184-22.299648 2.522112-11.84256 2.48832-19.438592 11.256832-19.141632 20.849664 0.301056 9.736192 8.12032 17.859584 20.043776 20.013056 6.344704 1.145856 12.863488 1.854464 19.304448 1.86368 77.302784 0.12288 154.605568 0.078848 231.908352 0.082944z m-6.00576 507.949056v0.017408c73.372672 0 146.747392 0.069632 220.120064-0.116736 6.736896-0.017408 13.642752-1.015808 20.160512-2.73408 8.118272-2.14016 12.097536-8.41728 12.746752-16.699392 0.57856-7.40352-3.356672-14.976-10.868736-17.330176-7.335936-2.297856-15.285248-3.674112-22.967296-3.685376-140.604416-0.20992-281.207808-0.139264-421.8112-0.200704-6.462464-0.002048-12.9792-0.2816-19.375104-1.139712-16.150528-2.166784-28.294144-10.218496-33.393664-26.164224-2.66752-8.341504-3.82464-17.219584-5.117952-25.93792-4.247552-28.63616-8.245248-57.310208-12.3392-85.96992-4.094976-28.66176-8.13568-57.331712-12.300288-85.984256-3.65056-25.111552-7.563264-50.18624-11.131904-75.309056-3.329024-23.43424-6.063104-46.95552-9.612288-70.355968-2.912256-19.201024-6.585344-38.288384-10.011648-57.409536-6.313984-35.226624-12.33408-70.51264-19.2-105.632768-3.354624-17.163264-12.311552-31.524864-25.797632-43.016192-14.129152-12.039168-31.154176-16.369664-48.823296-19.147776-13.797376-2.167808-27.544576-2.541568-40.771584 2.921472-10.980352 4.534272-15.361024 16.52224-10.1376 27.200512 3.987456 8.154112 11.459584 11.039744 19.666944 11.821056 8.977408 0.852992 18.041856 0.932864 27.072512 1.068032 17.9712 0.268288 30.598144 9.03168 36.212736 25.57952 4.453376 13.124608 6.7072 27.066368 9.179136 40.7808 6.04672 33.536 11.877376 67.116032 17.370112 100.747264 4.777984 29.251584 9.187328 58.569728 13.361152 87.914496 3.214336 22.591488 5.614592 45.297664 8.732672 67.904512 3.560448 25.807872 7.55712 51.557376 11.287552 77.341696 4.169728 28.821504 8.199168 57.663488 12.404736 86.479872 1.697792 11.63264 4.21888 23.165952 5.470208 34.840576 4.606976 42.990592 36.52608 72.158208 79.751168 72.198144 73.375744 0.067584 146.74944 0.018432 220.123136 0.018432zM723.75296 868.71552c31.47264 0.186368 48.474112-24.1664 48.82944-47.37024 0.360448-23.544832-17.225728-47.635456-49.05984-47.47776-29.159424 0.144384-47.32928 20.731904-47.905792 47.496192-0.489472 22.718464 17.38752 47.479808 48.136192 47.351808z m-348.223488-47.622144c-0.065536-26.807296-21.397504-47.707136-48.611328-47.306752-31.372288 0.4608-48.1792 24.681472-48.256 47.03744-0.077824 22.494208 17.559552 47.90272 48.610304 47.932416 27.326464 0.024576 48.32256-20.690944 48.257024-47.663104z m70.055936-437.612544V268.804096c-0.001024-9.53856-3.637248-14.81728-10.27072-14.926848-6.627328-0.109568-10.498048 5.300224-10.498048 14.706688-0.003072 76.280832-0.002048 152.561664-0.001024 228.842496 0 1.366016-0.041984 2.733056 0.013312 4.096 0.272384 6.781952 4.7616 11.715584 10.518528 11.592704 5.638144-0.120832 9.9072-4.85376 10.220544-11.373568 0.065536-1.36192 0.017408-2.729984 0.017408-4.094976v-114.16576z m136.026112-85.687296c-0.676864 0.198656-1.682432 0.390144-2.601984 0.780288-4.39808 1.861632-5.613568 5.198848-3.904512 11.124736 18.018304 62.414848 36.05504 124.824576 54.09792 187.23328 2.354176 8.1408 5.660672 11.20256 10.443776 9.800704 5.338112-1.564672 6.578176-5.786624 4.194304-14.03904-12.178432-42.151936-24.342528-84.307968-36.514816-126.461952-5.804032-20.097024-11.633664-40.18688-17.400832-60.294144-1.205248-4.205568-3.099648-7.578624-8.313856-8.143872z m-85.850112 103.083008v-97.763328c-0.001024-7.458816-2.228224-11.226112-6.690816-11.337728-4.498432-0.111616-6.909952 3.757056-6.909952 11.117568-0.002048 65.344512-0.002048 130.691072 0 196.035584 0 7.351296 2.436096 11.230208 6.939648 11.07968 4.379648-0.145408 6.659072-3.842048 6.660096-10.858496 0.004096-32.756736 0.001024-65.514496 0.001024-98.27328z m41.695232 24.605696c0 25.058304-0.022528 50.11456 0.019456 75.172864 0.008192 4.979712 2.830336 8.73984 6.393856 8.252416 4.426752-0.607232 6.223872-3.715072 6.162432-8.019968-0.01024-0.681984 0.001024-1.363968 0.001024-2.045952V352.0768c0-0.851968 0.009216-1.70496-0.01024-2.556928-0.090112-4.118528-2.034688-7.310336-6.168576-7.39328-4.148224-0.082944-6.199296 3.03616-6.381568 7.161856-0.052224 1.190912-0.017408 2.38592-0.017408 3.57888-0.002048 24.204288-0.001024 48.4096 0.001024 72.614912z" fill="transparent" p-id="11995" data-spm-anchor-id="a313x.search_index.0.i18.7e813a81JvzUAN" class=""></path><path d="M551.126016 220.365824c-77.302784-0.002048-154.605568 0.041984-231.908352-0.08192-6.44096-0.01024-12.959744-0.717824-19.304448-1.86368-11.923456-2.153472-19.74272-10.276864-20.043776-20.013056-0.29696-9.592832 7.299072-18.362368 19.141632-20.849664 7.294976-1.532928 14.856192-2.514944 22.299648-2.522112 150.339584-0.142336 300.678144-0.149504 451.017728-0.044032 16.001024 0.011264 31.496192 2.992128 46.11072 10.017792 16.600064 7.980032 27.1872 21.146624 34.013184 37.855232 7.555072 18.491392 7.812096 37.239808 4.025344 56.718336-5.756928 29.604864-10.31168 59.4432-15.499264 89.160704-3.750912 21.490688-7.694336 42.947584-11.557888 64.418816-3.714048 20.634624-7.392256 41.276416-11.169792 61.897728-2.178048 11.887616-3.567616 24.027136-6.977536 35.560448-9.30816 31.490048-30.779392 49.948672-63.19616 54.986752-10.566656 1.642496-21.397504 1.573888-32.104448 2.33472-22.940672 1.630208-45.879296 3.30752-68.820992 4.932608-15.80544 1.120256-31.616 2.15552-47.42144 3.278848-22.772736 1.616896-45.540352 3.299328-68.312064 4.916224-15.806464 1.122304-31.618048 2.153472-47.423488 3.275776-22.771712 1.61792-45.539328 3.306496-68.312064 4.918272-15.975424 1.130496-31.956992 2.190336-47.935488 3.273728-2.551808 0.173056-5.137408 0.104448-7.652352 0.49664-9.936896 1.55136-18.525184-3.575808-21.356544-12.899328-2.952192-9.718784 1.596416-19.915776 11.058176-23.599104 4.231168-1.646592 8.846336-2.766848 13.36832-3.13344 27.502592-2.224128 55.02464-4.207616 82.546688-6.180864 25.657344-1.839104 51.328-3.47648 76.981248-5.363712 30.06464-2.213888 60.112896-4.663296 90.176512-6.892544 20.72576-1.537024 41.467904-2.852864 62.198784-4.312064 19.546112-1.375232 39.109632-2.563072 58.626048-4.284416 19.350528-1.707008 34.52928-14.440448 38.524928-33.44896 5.045248-24.006656 9.059328-48.23552 13.305856-72.406016 6.342656-36.09088 12.47744-72.218624 18.745344-108.32384 3.23584-18.6368 7.27552-37.170176 9.591808-55.917568 1.344512-10.877952 0.714752-22.15936-0.347136-33.130496-1.16736-12.055552-12.176384-21.588992-24.344576-22.498304-4.75648-0.356352-9.549824-0.265216-14.326784-0.26624-74.5728-0.013312-149.1456-0.009216-223.717376-0.011264z" fill="#69c0ff" p-id="11996" data-spm-anchor-id="a313x.search_index.0.i15.7e813a81JvzUAN" class=""></path><path d="M545.120256 728.316928c-73.372672 0-146.747392 0.049152-220.120064-0.018432-43.225088-0.039936-75.144192-29.206528-79.751168-72.198144-1.251328-11.674624-3.772416-23.207936-5.470208-34.840576-4.205568-28.817408-8.235008-57.658368-12.404736-86.479872-3.731456-25.785344-7.727104-51.533824-11.287552-77.341696-3.11808-22.605824-5.51936-45.313024-8.732672-67.904512-4.174848-29.344768-8.583168-58.662912-13.361152-87.914496-5.49376-33.631232-11.324416-67.211264-17.370112-100.747264-2.47296-13.715456-4.72576-27.656192-9.179136-40.7808-5.614592-16.54784-18.241536-25.312256-36.212736-25.57952-9.030656-0.135168-18.09408-0.21504-27.072512-1.068032-8.20736-0.781312-15.679488-3.666944-19.666944-11.821056-5.223424-10.679296-0.842752-22.667264 10.1376-27.200512 13.227008-5.46304 26.975232-5.08928 40.771584-2.921472 17.66912 2.778112 34.694144 7.108608 48.823296 19.147776 13.48608 11.491328 22.443008 25.852928 25.797632 43.016192 6.864896 35.120128 12.886016 70.406144 19.2 105.632768 3.426304 19.122176 7.099392 38.208512 10.011648 57.409536 3.549184 23.400448 6.283264 46.921728 9.612288 70.355968 3.56864 25.122816 7.481344 50.197504 11.131904 75.309056 4.164608 28.65152 8.205312 57.322496 12.300288 85.984256 4.093952 28.659712 8.091648 57.33376 12.3392 85.96992 1.293312 8.718336 2.450432 17.596416 5.117952 25.93792 5.098496 15.945728 17.242112 23.99744 33.393664 26.164224 6.396928 0.858112 12.91264 1.137664 19.375104 1.139712 140.603392 0.062464 281.206784-0.009216 421.8112 0.200704 7.682048 0.011264 15.63136 1.386496 22.967296 3.685376 7.512064 2.354176 11.44832 9.925632 10.868736 17.330176-0.649216 8.282112-4.629504 14.559232-12.746752 16.699392-6.51776 1.718272-13.423616 2.716672-20.160512 2.73408-73.372672 0.187392-146.747392 0.116736-220.120064 0.116736-0.003072-0.006144-0.003072-0.011264-0.003072-0.017408zM723.75296 868.71552c-30.748672 0.128-48.625664-24.634368-48.137216-47.351808 0.576512-26.764288 18.747392-47.351808 47.905792-47.496192 31.834112-0.156672 49.420288 23.932928 49.05984 47.47776-0.354304 23.204864-17.355776 47.556608-48.828416 47.37024zM375.529472 821.093376c0.06656 26.973184-20.93056 47.68768-48.258048 47.66208-31.049728-0.028672-48.687104-25.438208-48.610304-47.932416 0.0768-22.355968 16.884736-46.575616 48.256-47.03744 27.214848-0.39936 48.545792 20.50048 48.612352 47.307776z" fill="#69c0ff" p-id="11997" data-spm-anchor-id="a313x.search_index.0.i13.7e813a81JvzUAN" class=""></path><path d="M445.586432 383.480832l-0.001024 114.164736c0 1.364992 0.049152 2.733056-0.017408 4.094976-0.314368 6.519808-4.583424 11.252736-10.220544 11.373568-5.756928 0.12288-10.247168-4.810752-10.518528-11.592704-0.055296-1.362944-0.013312-2.729984-0.013312-4.096-0.001024-76.279808-0.002048-152.56064 0.001024-228.842496 0-9.407488 3.87072-14.81728 10.498048-14.706688 6.634496 0.109568 10.269696 5.388288 10.27072 14.926848l0.001024 114.67776zM581.61152 297.793536c5.214208 0.565248 7.107584 3.938304 8.313856 8.143872 5.767168 20.107264 11.5968 40.19712 17.400832 60.294144 12.172288 42.153984 24.337408 84.310016 36.514816 126.461952 2.383872 8.252416 1.143808 12.474368-4.194304 14.03904-4.783104 1.401856-8.0896-1.659904-10.443776-9.800704a494570.405888 494570.405888 0 0 1-54.09792-187.23328c-1.71008-5.925888-0.493568-9.263104 3.904512-11.124736 0.920576-0.390144 1.92512-0.580608 2.601984-0.780288zM495.761408 400.876544c0 32.75776 0.003072 65.51552-0.001024 98.274304-0.001024 7.017472-2.280448 10.714112-6.660096 10.858496-4.503552 0.149504-6.939648-3.729408-6.939648-11.07968-0.002048-65.344512-0.002048-130.691072 0-196.035584 0-7.360512 2.41152-11.230208 6.909952-11.117568 4.462592 0.111616 6.689792 3.878912 6.690816 11.337728v97.762304zM537.455616 425.48224c-0.001024-24.205312-0.002048-48.4096-0.001024-72.614912 0-1.19296-0.034816-2.387968 0.017408-3.57888 0.183296-4.125696 2.234368-7.2448 6.381568-7.161856 4.133888 0.082944 6.079488 3.273728 6.168576 7.39328 0.019456 0.851968 0.01024 1.70496 0.01024 2.556928V498.8416c0 0.681984-0.011264 1.363968-0.001024 2.045952 0.062464 4.304896-1.734656 7.412736-6.162432 8.019968-3.56352 0.488448-6.385664-3.27168-6.393856-8.252416-0.04096-25.058304-0.018432-50.115584-0.019456-75.172864z" fill="#1890ff" p-id="11998" data-spm-anchor-id="a313x.search_index.0.i16.7e813a81JvzUAN" class=""></path></svg>