<?xml version="1.0" standalone="no"?><!DOCTYPE svg PUBLIC "-//W3C//DTD SVG 1.1//EN" "http://www.w3.org/Graphics/SVG/1.1/DTD/svg11.dtd"><svg t="1711770557207" class="icon" viewBox="0 0 1024 1024" version="1.1" xmlns="http://www.w3.org/2000/svg" p-id="1560" xmlns:xlink="http://www.w3.org/1999/xlink" width="200" height="200"><path d="M609.37184 909.64305a275.697763 275.697763 0 0 1-58.791883-16.417757 16.736893 16.736893 0 0 1-12.198075-20.070088 107.123208 107.123208 0 0 0-10.531477-59.713831 108.47067 108.47067 0 0 0-44.147101-47.373918c-1.418381-0.74465-3.262276-1.418381-5.744443-2.90768 0.354595 3.971466 0.70919 6.843687 1.063786 9.715908a427.003532 427.003532 0 0 0 13.651915 67.12487 64.394487 64.394487 0 0 0 31.204377 37.338874 22.197659 22.197659 0 0 0 6.808228 2.517626c5.035252 0 5.779902 2.482166 5.744442 7.552877-1.772976-0.70919-3.191357-1.063786-4.645197-1.808435a292.576494 292.576494 0 0 1-78.259159-53.82755 19.254519 19.254519 0 0 1-2.482167-21.169333 128.753515 128.753515 0 0 0-0.74465-89.003394 123.328208 123.328208 0 0 0-23.545121-41.133043c-1.063786-1.063786-2.127571-1.772976-3.900547-3.545951-1.099245 8.226608-2.163031 15.779486-2.94314 22.942309-1.418381 14.396565-3.191357 28.722211-3.936006 43.083316a82.939816 82.939816 0 0 0 12.552669 56.02604 54.678579 54.678579 0 0 0 13.651915 13.616456c4.255142 3.226816 5.035252 6.099037 3.545952 11.843479-5.354387-6.063578-10.389639-11.134289-15.034836-16.524136a339.205762 339.205762 0 0 1-45.033589-63.224323 20.6729 20.6729 0 0 1 2.482166-20.814738 136.022716 136.022716 0 0 0 9.361313-134.24974c-0.354595-1.063786-1.063786-1.772976-1.418381-2.907681 0-0.354595-0.70919-0.354595-1.418381-0.70919a341.333333 341.333333 0 0 0-28.01302 86.875822 66.344761 66.344761 0 0 0 13.722834 51.416303c1.808435 2.19849 1.063786 6.134497 1.45384 9.006718-0.70919 0.354595-1.418381 0.354595-1.772976 0.709191l-6.489092-11.84348a478.207078 478.207078 0 0 1-33.615624-93.790428 9.113096 9.113096 0 0 1-0.354595-4.326062 42.161369 42.161369 0 0 1 13.616455-20.105547 92.797562 92.797562 0 0 0 30.176051-41.629476 144.887596 144.887596 0 0 0 8.971259-80.812245 5.17709 5.17709 0 0 0-0.709191-2.127571c-0.70919 0.354595-1.418381 0.354595-1.41838 0.709191-12.942725 17.942517-26.949235 35.211303-39.11185 53.863009a81.237759 81.237759 0 0 0-15.460351 58.508207 36.948819 36.948819 0 0 0 3.971466 12.55267c3.545952 5.070711 1.063786 8.262068-2.517625 13.651915-2.163031-11.488884-4.680657-21.559388-5.708983-31.558972-2.517626-25.530854-3.936007-50.636194-5.815361-76.060669a27.622966 27.622966 0 0 1 11.453424-18.297112 86.485768 86.485768 0 0 0 48.224947-42.05499 135.171688 135.171688 0 0 0 19.006302-64.997299v-3.936007c0-0.354595-0.354595-0.70919-0.70919-1.772976-2.872221 2.482166-6.099037 4.680657-9.006718 7.162823-12.907265 10.744234-26.169125 21.169333-38.3672 32.658218a77.833645 77.833645 0 0 0-25.495394 52.054574 76.379805 76.379805 0 0 0 0.744649 15.779486c1.063786 5.035252-1.418381 7.198282-5.744442 10.744235 0-5.744442-0.354595-10.035044 0-14.325646a563.451763 563.451763 0 0 1 13.29732-94.783295 19.14814 19.14814 0 0 1 18.651707-15.105756 72.585636 72.585636 0 0 0 49.182354-23.296904 127.122377 127.122377 0 0 0 32.693676-56.203338 14.183808 14.183808 0 0 0 0.354596-1.808436c0-0.354595-0.354595-0.70919-0.390055-1.063785s-0.70919-0.354595-1.063786-0.390055c-18.687167 7.907473-38.083524 15.105755-56.274257 23.970635a57.373502 57.373502 0 0 0-31.984486 39.501905 45.70732 45.70732 0 0 0-1.063786 12.198074c0.354595 4.680657-2.163031 6.453633-6.453632 8.262068 0-1.45384-0.354595-2.836762 0-3.971466a531.644574 531.644574 0 0 1 34.466652-92.620264 20.814738 20.814738 0 0 1 16.524136-7.198283 70.919039 70.919039 0 0 0 69.997092-18.084355 106.626775 106.626775 0 0 0 25.176258-30.885241 105.350232 105.350232 0 0 0-10.815153 0 203.431263 203.431263 0 0 0-53.224739 6.950066 48.118568 48.118568 0 0 0-34.573031 35.636817c-1.063786 4.609738-4.326061 4.645197-8.616663 5.744442 1.063786-2.517626 1.418381-3.936007 2.16303-5.389847a453.314495 453.314495 0 0 1 42.409586-67.479465 18.190733 18.190733 0 0 1 17.233326-4.290602 70.209848 70.209848 0 0 0 80.493109-10.283261 152.475933 152.475933 0 0 0 17.268786-16.914191c-0.390055-0.70919-0.74465-1.063786-1.063786-1.772976-2.872221-0.354595-6.134497-1.063786-9.006718-1.41838a170.631207 170.631207 0 0 0-46.700187-4.680657 47.870351 47.870351 0 0 0-42.622342 27.552047c-1.772976 3.936007-2.127571 3.971466-8.971258 2.872221 6.843687-7.907473 12.55267-15.424891 19.396357-22.233119 10.035044-10.035044 20.070088-19.750952 30.424267-29.750537a14.538403 14.538403 0 0 1 6.099038-3.226816 81.91149 81.91149 0 0 0 63.259782-37.019738 110.6337 110.6337 0 0 0 17.197867-36.239629c0.212757-1.170164 0.354595-2.482166 0.709191-4.255142q-11.027911 3.971466-22.19766 7.872013a117.016414 117.016414 0 0 0-47.373917 26.59464 46.842025 46.842025 0 0 0-15.850406 38.048064 4.999792 4.999792 0 0 1-1.772976 3.545952 464.76792 464.76792 0 0 0-62.515132 67.904979c-0.354595 0.70919-1.418381 1.063786-1.772976 1.808436-0.354595-0.354595-1.063786-0.354595-1.418381-0.709191a32.161784 32.161784 0 0 1 4.255142-9.325853 131.200222 131.200222 0 0 0 34.147518-82.585221 389.700118 389.700118 0 0 0-0.354596-40.991204 37.941686 37.941686 0 0 0-2.16303-7.872013c-7.162823 7.872013-13.651915 14.00651-18.970843 21.133873a138.68218 138.68218 0 0 0-29.112266 67.86952 54.288524 54.288524 0 0 0 9.325854 43.083316 5.567145 5.567145 0 0 1 1.063786 3.936007 39.253688 39.253688 0 0 1-6.453633 20.460143A433.669922 433.669922 0 0 0 365.233049 292.18644l-2.127571 4.326061c-0.354595 0-1.063786-0.354595-1.45384-0.390055a50.88441 50.88441 0 0 1 1.772976-7.907473 150.454741 150.454741 0 0 0 18.687167-84.393656 131.732114 131.732114 0 0 0-13.687375-51.983655 22.977769 22.977769 0 0 0-2.127571-3.616871 68.791468 68.791468 0 0 0-5.035252 7.552878A191.729621 191.729621 0 0 0 340.765981 258.499896a48.68592 48.68592 0 0 0 15.105755 31.594432c1.063786 1.063786 2.517626 2.907681 2.127571 3.971466a53.650253 53.650253 0 0 1-2.482166 21.169333 423.386661 423.386661 0 0 0-24.573447 82.975275c0 0.354595-0.354595 1.063786-2.127571 1.418381a75.174181 75.174181 0 0 1-0.354595-8.971258c2.127571-16.134081 6.099037-32.303622 6.737308-48.402244a122.831775 122.831775 0 0 0-31.70081-88.116906 28.686751 28.686751 0 0 1-2.517626-1.45384c-1.45384 4.964333-3.581411 9.680449-4.680656 14.7157a209.884895 209.884895 0 0 0 0.354595 93.364915 47.444837 47.444837 0 0 0 24.431609 33.367408 3.155897 3.155897 0 0 1 2.127571 2.127571 68.472332 68.472332 0 0 1 2.872221 20.495602 714.261098 714.261098 0 0 0-7.162823 91.556479c0 0.70919-0.354595 1.808435-0.354595 2.482166-0.354595 0-1.063786 0-1.418381 0.390055a61.876861 61.876861 0 0 1-1.418381-7.872013 175.808297 175.808297 0 0 0-4.290601-53.15382 135.7745 135.7745 0 0 0-50.281599-73.223907 6.311794 6.311794 0 0 0-3.226816-2.517626 24.183392 24.183392 0 0 0-1.418381 6.063578 189.176536 189.176536 0 0 0 10.425099 74.996883 183.822148 183.822148 0 0 0 13.297319 29.785996 44.182561 44.182561 0 0 0 29.785997 23.722419 7.552878 7.552878 0 0 1 4.006925 2.482166 53.189279 53.189279 0 0 1 5.389847 17.233327 475.370317 475.370317 0 0 0 11.276128 95.421566 3.545952 3.545952 0 0 1-0.709191 3.581412 27.410208 27.410208 0 0 1-2.19849-5.744442 141.589861 141.589861 0 0 0-23.686959-57.444422 125.881294 125.881294 0 0 0-60.281183-45.955537c-0.70919-0.354595-1.45384-0.354595-2.163031-0.70919a7.340121 7.340121 0 0 0-2.16303 0.354595 39.005471 39.005471 0 0 0 0.70919 11.134289 174.354457 174.354457 0 0 0 43.437911 83.294411 46.842025 46.842025 0 0 0 39.040931 16.098622 6.808228 6.808228 0 0 1 4.680657 1.772976 96.378974 96.378974 0 0 1 9.325853 16.878731 505.475448 505.475448 0 0 0 39.750121 93.116698c1.063786 1.772976 1.808435 3.971466 2.907681 5.744442-0.70919 0.354595-1.063786 0.70919-1.772976 1.063785a44.076183 44.076183 0 0 1-5.070711-7.198282 133.327793 133.327793 0 0 0-31.913568-42.728721 102.229794 102.229794 0 0 0-69.997091-26.169125c-7.162823 0-7.552878 0.70919-5.389847 7.872013a107.477803 107.477803 0 0 0 18.687167 33.048272 122.193504 122.193504 0 0 0 39.750121 35.45952 51.345384 51.345384 0 0 0 47.338459 2.801302c1.063786-0.390055 2.553085-0.70919 3.226816-0.390055a51.841817 51.841817 0 0 1 13.651915 10.779694 421.471847 421.471847 0 0 0 57.089826 71.805527 15.673108 15.673108 0 0 1 2.127571 2.482166c0.354595 0.354595 0 0.70919 0.354595 3.262276a49.643327 49.643327 0 0 1-7.517418-6.099038 99.676709 99.676709 0 0 0-43.792506-29.785996 112.335757 112.335757 0 0 0-77.904564 5.708983 18.332572 18.332572 0 0 0-2.872221 2.16303 121.271556 121.271556 0 0 0 10.389639 12.58813 124.71113 124.71113 0 0 0 86.166632 34.431193 41.452178 41.452178 0 0 0 26.204585-10.389639 15.283053 15.283053 0 0 1 21.559387 0 310.306254 310.306254 0 0 0 62.550593 42.76418l15.070295 7.552878c-0.390055 0.70919-0.390055 1.063786-0.70919 1.772976a30.601565 30.601565 0 0 1-6.843687-2.127571 99.038438 99.038438 0 0 0-115.952629 7.162823c-3.900547 2.872221-7.872013 6.099037-12.871805 10.070503a96.804488 96.804488 0 0 0 14.361105 9.325854 123.328208 123.328208 0 0 0 84.003602 8.297527 51.522682 51.522682 0 0 0 32.977353-24.041554 18.226193 18.226193 0 0 1 18.722626-5.389847 282.825126 282.825126 0 0 0 59.323776 15.885865 29.041346 29.041346 0 0 0 5.744442 0.354595 6.879147 6.879147 0 0 0-6.489092-8.971258z" fill="#bfbfbf" p-id="1561"></path></svg>