<?xml version="1.0" standalone="no"?><!DOCTYPE svg PUBLIC "-//W3C//DTD SVG 1.1//EN" "http://www.w3.org/Graphics/SVG/1.1/DTD/svg11.dtd"><svg t="1711770596923" class="icon" viewBox="0 0 1024 1024" version="1.1" xmlns="http://www.w3.org/2000/svg" p-id="2233" xmlns:xlink="http://www.w3.org/1999/xlink" width="200" height="200"><path d="M414.642518 909.674551a7.092149 7.092149 0 0 0-6.489316 8.971569 29.43242 29.43242 0 0 0 5.744641-0.354608 282.834921 282.834921 0 0 0 59.32583-15.921875 18.226824 18.226824 0 0 1 18.687814 5.390033 51.524466 51.524466 0 0 0 33.013955 24.077848 123.332479 123.332479 0 0 0 83.900129-8.120511 96.453233 96.453233 0 0 0 14.361602-9.361638c-5.035426-3.936143-8.971569-7.163071-12.907712-10.035391a108.403505 108.403505 0 0 0-77.198047-21.524674 107.836133 107.836133 0 0 0-38.794057 14.361603 30.567164 30.567164 0 0 1-6.808464 2.163105c-0.354607-0.709215-0.354607-1.063822-0.709215-1.773037l15.070818-7.5886a310.35246 310.35246 0 0 0 62.552758-42.765661 15.283582 15.283582 0 0 1 21.560135 0 41.453614 41.453614 0 0 0 26.205492 10.389999 124.715448 124.715448 0 0 0 86.169616-34.432386 121.346677 121.346677 0 0 0 10.389999-12.553104 17.730374 17.730374 0 0 0-2.83686-2.163106 112.339647 112.339647 0 0 0-77.942723-5.744641 99.680161 99.680161 0 0 0-43.794023 29.787028 49.645046 49.645046 0 0 1-7.553139 6.099248c0.354607-2.482252 0-2.83686 0.354608-3.191467a15.63819 15.63819 0 0 1 2.163105-2.517713 421.450982 421.450982 0 0 0 57.091803-71.843474 51.73723 51.73723 0 0 1 13.616927-10.780067c0.709215-0.354607 2.163106 0 3.262389 0.390068a51.347162 51.347162 0 0 0 47.304637-2.83686 122.197735 122.197735 0 0 0 39.751498-35.460747 107.375143 107.375143 0 0 0 18.687814-33.013956c2.163106-7.163071 1.773037-7.907747-5.390034-7.907746a102.197874 102.197874 0 0 0-69.928594 26.09911 133.403331 133.403331 0 0 0-31.914672 42.7302 44.042248 44.042248 0 0 1-5.070887 7.198532c-0.709215-0.354607-1.063822-0.709215-1.773037-1.063823 1.063822-1.773037 1.773037-3.971604 2.87232-5.744641a505.84756 505.84756 0 0 0 39.503273-93.01354 96.098625 96.098625 0 0 1 9.361637-16.879316 6.808463 6.808463 0 0 1 4.645358-1.773037 46.843647 46.843647 0 0 0 39.077743-16.13464 174.325034 174.325034 0 0 0 43.439416-83.297295 39.006822 39.006822 0 0 0 0.709215-11.134675 7.340375 7.340375 0 0 0-2.198567-0.354608c-0.709215 0.354607-1.41843 0.390068-2.127644 0.709215a125.885653 125.885653 0 0 0-60.283271 45.957129 141.559303 141.559303 0 0 0-23.758701 57.446411 27.411158 27.411158 0 0 1-2.127644 5.780101 3.546075 3.546075 0 0 1-0.709215-3.581535 475.174014 475.174014 0 0 0 11.453821-95.495793 53.191121 53.191121 0 0 1 5.390034-17.198462 7.517678 7.517678 0 0 1 3.971603-2.517713 44.184091 44.184091 0 0 0 29.787028-23.687779 184.183122 184.183122 0 0 0 13.333241-29.964332 189.183087 189.183087 0 0 0 10.319077-74.928559 24.148769 24.148769 0 0 0-1.418429-6.063788 6.312013 6.312013 0 0 0-3.262389 2.517713 135.814662 135.814662 0 0 0-50.247879 73.261904 175.708003 175.708003 0 0 0-4.290751 53.1202 62.269072 62.269072 0 0 1-1.418429 7.907746c-0.354607-0.354607-1.063822-0.390068-1.41843-0.390068 0-0.709215-0.354607-1.773037-0.354608-2.482252a714.321294 714.321294 0 0 0-7.198531-91.59511 68.616546 68.616546 0 0 1 2.836859-20.460852 3.156007 3.156007 0 0 1 2.163106-2.127644 47.44648 47.44648 0 0 0 24.432455-33.404024 209.892163 209.892163 0 0 0 0.354607-93.332687c-1.099283-5.035426-3.262389-9.716245-4.716279-14.71621a28.616823 28.616823 0 0 1-2.482252 1.45389 122.800568 122.800568 0 0 0-31.595526 87.942654c0.709215 16.170101 4.645358 32.304741 6.737542 48.43938a75.212245 75.212245 0 0 1-0.354608 8.971569c-1.808498-0.354607-2.127645-1.063822-2.127645-1.418429a423.543166 423.543166 0 0 0-24.787062-82.978149 53.652111 53.652111 0 0 1-2.482252-21.134606c-0.390068-1.063822 1.063822-2.872321 2.127645-3.971603a48.723067 48.723067 0 0 0 15.106278-31.560065 191.7008 191.7008 0 0 0-20.496312-102.694325 68.935693 68.935693 0 0 0-5.035426-7.553139 22.978564 22.978564 0 0 0-2.127645 3.581536 131.843058 131.843058 0 0 0-13.652388 52.056377 150.42449 150.42449 0 0 0 18.794196 84.396578 50.850712 50.850712 0 0 1 1.773038 7.907747c-0.354607 0-1.099283 0.354607-1.41843 0.354607l-2.198567-4.29075a433.578557 433.578557 0 0 0-43.403954-75.034941 39.219587 39.219587 0 0 1-6.489317-20.460851 5.567337 5.567337 0 0 1 1.063822-3.900683 54.325865 54.325865 0 0 0 9.361638-43.120268 138.651522 138.651522 0 0 0-29.077813-67.83641c-5.390034-7.163071-11.84389-13.262319-19.006961-21.134605a38.013921 38.013921 0 0 0-2.127644 7.872286 390.458289 390.458289 0 0 0-0.354608 40.921702 131.204765 131.204765 0 0 0 34.113239 82.55262 32.198359 32.198359 0 0 1 4.29075 9.326176c-0.354607 0.354607-1.063822 0.354607-1.418429 0.709215-0.354607-0.673754-1.41843-1.063822-1.773038-1.773037a465.067701 465.067701 0 0 0-62.517297-67.907331 4.999965 4.999965 0 0 1-1.773038-3.581536 46.808186 46.808186 0 0 0-15.815493-38.049382 117.020466 117.020466 0 0 0-47.304637-26.737403q-11.170135-3.900682-22.198428-7.872286c0.354607 1.808498 0.354607 3.226928 0.709215 4.326211a110.850296 110.850296 0 0 0 17.198463 35.886276 81.914326 81.914326 0 0 0 63.261973 37.021021 14.538906 14.538906 0 0 1 6.099248 3.262388c10.389999 10.035391 20.42539 19.680715 30.425322 29.716107 6.843924 6.843924 12.588565 14.361603 19.397028 22.233888-6.843924 1.063822-7.198532 1.063822-8.971569-2.83686a47.872009 47.872009 0 0 0-42.623818-27.588461 170.637116 170.637116 0 0 0-46.808186 4.716279c-2.83686 0.354607-6.099249 1.063822-8.971569 1.41843-0.354607 0.709215-0.709215 1.099283-1.063823 1.808498a152.481213 152.481213 0 0 0 17.233923 16.879316 70.21228 70.21228 0 0 0 80.495897 10.283617 18.191363 18.191363 0 0 1 17.269384 4.326211 453.188351 453.188351 0 0 1 42.375593 67.446341c0.709215 1.41843 1.063822 2.907781 2.127644 5.390034-4.29075-1.063822-7.517678-1.063822-8.5815-5.744641a48.120234 48.120234 0 0 0-34.574229-35.638051 203.402847 203.402847 0 0 0-53.226582-6.950307c-3.226928-0.354607-6.843924 0-10.815528 0a106.630467 106.630467 0 0 0 25.212592 31.205458 70.921495 70.921495 0 0 0 69.999515 18.333206 20.779998 20.779998 0 0 1 16.524708 7.198532 531.627524 531.627524 0 0 1 34.432386 92.623472c0.354607 1.063822 0 2.517713 0 3.971604-4.29075-1.773037-6.808463-3.616996-6.453856-8.262354a45.779825 45.779825 0 0 0-1.063823-12.198497 57.375489 57.375489 0 0 0-31.950133-39.503273c-18.333206-8.971569-37.730235-16.13464-56.276206-23.971465-0.354607 0-0.709215 0.354607-1.063822 0.390068s-0.354607 0.709215-0.390069 1.063822a14.184299 14.184299 0 0 0 0.354608 1.808499 127.091318 127.091318 0 0 0 32.978495 55.815216 72.58815 72.58815 0 0 0 49.219517 23.297711 19.148804 19.148804 0 0 1 18.652353 15.106278 563.825882 563.825882 0 0 1 13.226859 94.786578c0.354607 4.326211 0 8.652422 0 14.361602-4.326211-3.546075-6.808463-5.780102-5.744641-10.744606a76.38245 76.38245 0 0 0 0.709215-15.780033 77.80088 77.80088 0 0 0-25.460817-52.056377c-12.198497-11.489282-25.496277-21.879281-38.368528-32.694809-2.907781-2.482252-6.134709-4.645358-9.00703-7.163071-0.354607 1.063822-0.709215 1.41843-0.709215 1.773038v3.971603a135.176369 135.176369 0 0 0 19.042421 64.96409 86.524223 86.524223 0 0 0 48.191156 42.091907 27.659383 27.659383 0 0 1 11.489282 18.297745c-1.808498 25.460817-3.262389 50.637947-5.851023 76.027842-1.063822 10.070852-3.581535 20.106244-5.67372 31.560066-3.616996-5.354573-6.134709-8.581501-2.517713-13.616927a36.879177 36.879177 0 0 0 3.900682-12.553105 81.240572 81.240572 0 0 0-15.425425-58.510233c-12.198497-18.687814-26.240953-35.921737-39.113204-53.900336 0-0.354607-0.709215-0.354607-1.41843-0.709215a5.177269 5.177269 0 0 0-0.709215 2.163106 144.928074 144.928074 0 0 0 8.971569 80.779582 92.765315 92.765315 0 0 0 30.141635 41.666378 42.091907 42.091907 0 0 1 13.652388 20.106244 9.148873 9.148873 0 0 1-0.354607 4.326211 478.33002 478.33002 0 0 1-33.616789 93.793677l-6.453856 11.843889c-0.354607-0.354607-1.063822-0.390068-1.808498-0.709215 0.354607-2.83686-0.354607-6.843924 1.41843-8.971569a66.347058 66.347058 0 0 0 13.75877-51.453544 341.345154 341.345154 0 0 0-28.013991-86.878831c-0.709215 0.354607-1.41843 0.354607-1.418429 0.709215-0.354607 1.063822-1.063822 1.773037-1.41843 2.87232a136.027427 136.027427 0 0 0 9.007029 134.289851 20.673616 20.673616 0 0 1 2.482253 20.815458 339.182048 339.182048 0 0 1-44.857846 63.545659c-4.680819 5.354573-9.680784 10.354538-15.070817 16.524709-1.41843-5.744641-0.709215-8.652422 3.546075-11.879351a54.680472 54.680472 0 0 0 13.652387-13.616927 82.942688 82.942688 0 0 0 12.588566-56.02798c-0.709215-14.326142-2.517713-28.723205-3.971604-43.049348-0.709215-7.198532-1.773037-14.71621-2.907781-22.978564-1.773037 1.773037-2.872321 2.517713-3.936143 3.581536a123.36794 123.36794 0 0 0-23.68778 40.957163 128.722513 128.722513 0 0 0-0.709214 89.006475 19.255186 19.255186 0 0 1-2.517714 21.205527 292.444783 292.444783 0 0 1-78.261869 53.829415c-1.41843 0.709215-2.907781 1.063822-4.680819 1.773037 0-4.964505 0.709215-7.517678 5.744642-7.517678a22.127506 22.127506 0 0 0 6.808463-2.482253 64.396717 64.396717 0 0 0 31.205458-37.375627 428.01122 428.01122 0 0 0 13.75877-67.127195c0.354607-2.872321 0.709215-5.744641 1.063822-9.716245-2.482252 1.41843-4.29075 2.127645-5.70918 2.872321a108.474426 108.474426 0 0 0-44.184091 47.411019 107.126918 107.126918 0 0 0-10.496382 59.680438 16.737473 16.737473 0 0 1-12.233957 20.106243 275.884614 275.884614 0 0 1-58.793919 16.418326z" fill="#bfbfbf" p-id="2234"></path></svg>